<?xml version="1.0" encoding="utf-8"?>
<!-- Generator: Adobe Illustrator 24.0.1, SVG Export Plug-In . SVG Version: 6.00 Build 0)  -->
<svg version="1.1" id="Layer_1" xmlns="http://www.w3.org/2000/svg" xmlns:xlink="http://www.w3.org/1999/xlink" x="0px" y="0px"
	 viewBox="0 0 151.5 154.9" style="enable-background:new 0 0 151.5 154.9;" xml:space="preserve">
<style type="text/css">
	.st0{fill:#8BC34A;}
	.st1{fill:#F9FBFC;stroke:#4F7621;stroke-width:4.6191;stroke-linecap:round;stroke-linejoin:round;}
	.st2{fill:none;stroke:#4F7621;stroke-width:4.6191;stroke-linecap:round;stroke-linejoin:round;}
	.st3{fill:#4F7621;}
	.st4{font-family:'MazzardH-Black';}
	.st5{font-size:23.0955px;}
	.st6{font-size:23.1659px;}
	.st7{font-size:23.0053px;}
	.st8{font-size:22.9484px;}
	.st9{fill:none;stroke:#8BC34A;stroke-width:4.6191;stroke-linecap:round;stroke-linejoin:round;}
</style>
<g>
	<title>logo_cata</title>
	<circle class="st0" cx="76.2" cy="78.2" r="38.1"/>
	<path class="st1" d="M103.7,116.3H76.2c0-13.1,10.6-23.8,23.8-23.8c0,0,0,0,0,0h27.6C127.6,105.6,116.9,116.3,103.7,116.3
		C103.7,116.3,103.7,116.3,103.7,116.3z"/>
	<path class="st1" d="M76.2,33.6L76.2,33.6c-16.3,15.3-17,40.9-1.7,57.1c0.6,0.6,1.1,1.2,1.7,1.7l0,0c16.3-15.3,17-40.9,1.7-57.2
		C77.3,34.7,76.8,34.1,76.2,33.6z"/>
	<path class="st1" d="M76.2,116.3H48.6c-13.2,0-23.8-10.7-23.8-23.8l0,0h27.6C65.5,92.4,76.2,103.1,76.2,116.3
		C76.2,116.2,76.2,116.3,76.2,116.3z"/>
	<line class="st2" x1="76.2" y1="91.5" x2="76.2" y2="138.2"/>
	<text transform="matrix(0.2859 -0.9583 0.9583 0.2859 19.5136 68.2467)" class="st3 st4 st5">E</text>
	<text transform="matrix(0.5192 -0.8546 0.8546 0.5192 22.8374 55.9351)" class="st3 st4 st5">C</text>
	<text transform="matrix(0.7437 -0.6685 0.6685 0.7437 31.2826 41.727)" class="st3 st4 st5">O</text>
	<text transform="matrix(0.9371 -0.3489 0.3489 0.9371 49.8298 27.0378)" class="st3 st4 st6">F</text>
	<text transform="matrix(0.9939 -0.1104 0.1104 0.9939 62.0508 22.2777)" class="st3 st4 st7">R</text>
	<text transform="matrix(0.9971 7.584891e-02 -7.584891e-02 0.9971 77.6341 20.9902)" class="st3 st4 st5">I</text>
	<text transform="matrix(0.9687 0.2484 -0.2484 0.9687 83.9302 21.1711)" class="st3 st4 st5">E</text>
	<text transform="matrix(0.8756 0.4831 -0.4831 0.8756 96.7635 24.2643)" class="st3 st4 st8">N</text>
	<text transform="matrix(0.7103 0.7039 -0.7039 0.7103 110.5497 31.8048)" class="st3 st4 st5">D</text>
	<text transform="matrix(0.5138 0.8579 -0.8579 0.5138 121.9381 43.3633)" class="st3 st4 st5">L</text>
	<text transform="matrix(0.3257 0.9455 -0.9455 0.3257 127.5109 51.6992)" class="st3 st4 st5">Y</text>
	<path class="st9" d="M148.4,78.2c0.5,39.9-31.5,72.6-71.3,73c-39.9,0.5-72.6-31.5-73-71.3c0-0.6,0-1.1,0-1.7"/>
</g>
</svg>
